<svg id="Capa_1" fill="#f5f5f5" enable-background="new 0 0 512 512" height="512" viewBox="0 0 512 512" width="512"
     xmlns="http://www.w3.org/2000/svg">
    <g>
        <path d="m60 512h272c33.084 0 60-26.916 60-60v-407c0-8.284-6.716-15-15-15h-75v-15c0-8.284-6.716-15-15-15h-121c-8.284 0-15 6.716-15 15v15h-75c-8.284 0-15 6.716-15 15v377h-46c-8.284 0-15 6.716-15 15v15c0 33.084 26.916 60 60 60zm121-482h91v30h-91zm-90 30h60v15c0 8.284 6.716 15 15 15h121c8.284 0 15-6.716 15-15v-15h60v392c0 16.542-13.458 30-30 30s-30-13.458-30-30v-15c0-8.284-6.716-15-15-15h-196zm181 392c0 10.92 2.934 21.17 8.052 30h-220.052c-16.542 0-30-13.458-30-30z"/>
        <path d="m467 61c-24.813 0-45 20.187-45 45v270c0 1.588.324 3.407.754 4.696l30 91c2.027 6.15 7.771 10.304 14.246 10.304s12.219-4.154 14.246-10.304l30-91c.424-1.273.754-3.073.754-4.696v-270c0-24.813-20.187-45-45-45zm-15 300v-210h30v210zm15-270c8.271 0 15 6.729 15 15v15h-30v-15c0-8.271 6.729-15 15-15zm-9.261 300h18.521l-9.26 28.091z"/>
        <path d="m226 181h91c8.284 0 15-6.716 15-15s-6.716-15-15-15h-91c-8.284 0-15 6.716-15 15s6.716 15 15 15z"/>
        <path d="m317 241h-91c-8.284 0-15 6.716-15 15s6.716 15 15 15h91c8.284 0 15-6.716 15-15s-6.716-15-15-15z"/>
        <path d="m332 346c0-8.284-6.716-15-15-15h-91c-8.284 0-15 6.716-15 15s6.716 15 15 15h91c8.284 0 15-6.716 15-15z"/>
        <path d="m155.394 176.606c2.928 2.93 6.767 4.394 10.606 4.394s7.678-1.464 10.606-4.394l30-30c5.858-5.858 5.858-15.355 0-21.213-5.857-5.858-15.355-5.858-21.213 0l-19.393 19.394-19.394-19.393c-5.857-5.858-15.355-5.858-21.213 0s-5.858 15.355 0 21.213z"/>
        <path d="m155.394 266.606c2.928 2.93 6.767 4.394 10.606 4.394s7.678-1.464 10.606-4.394l30-30c5.858-5.858 5.858-15.355 0-21.213-5.857-5.858-15.355-5.858-21.213 0l-19.393 19.394-19.394-19.393c-5.857-5.858-15.355-5.858-21.213 0s-5.858 15.355 0 21.213z"/>
        <path d="m206.606 305.394c-5.857-5.858-15.355-5.858-21.213 0l-19.393 19.393-19.394-19.393c-5.857-5.858-15.355-5.858-21.213 0s-5.858 15.355 0 21.213l30 30c2.929 2.929 6.768 4.393 10.607 4.393s7.678-1.464 10.606-4.394l30-30c5.859-5.857 5.859-15.355 0-21.212z"/>
    </g>
</svg>
